{"title":"White Squall (1996) Jeff Bridges + Ryan Phillippe (DVDrip)","uid":4281374,"size":1464664111,"categoryP":"video","categoryS":"movies","magnet":"?xt=urn:btih:c8b070a5ff9a3ddded2dccdabf0dc7cdd4668e90&amp;dn=White+Squall+%281996%29+Jeff+Bridges+%2B+Ryan+Phillippe+%28DVDrip%29&amp;tr=udp%3A%2F%2Ftracker.openbittorrent.com%3A80&amp;tr=udp%3A%2F%2Fopen.demonii.com%3A1337&amp;tr=udp%3A%2F%2Ftracker.coppersurfer.tk%3A6969&amp;tr=udp%3A%2F%2Fexodus.desync.com%3A6969","seeders":11,"leechers":0,"uploader":"Kuthumi","files":-1,"time":1215441448,"description":" &lt;a href=&quot;http://www.imdb.com/title/tt0118158/&quot; rel=&quot;nofollow&quot; target=&quot;_NEW&quot;&gt;http://www.imdb.com/title/tt0118158/&lt;/a&gt;\n\nFantastic, true story about a group of young boys being taught discipline as crew on a school sailing ship, when it meets unexpected challenges.\n\nOne of the first films for many young actors who later had a successful career: \n\nScott Wolf (then 28)\nRyan Phillippe (then 22)\nEthan Embry (then 18)\nJeremy Sisto (then 22)\n\nThis is not my rip, I found it on another torrent site using PirateBay's tracker, so I thought it should be represented here.\n\nWidescreen 560x240, great stereo sound.\nBurn tested, runs well in my standalone DivX player.\n\nFormat/Info                      : Audio Video Interleave\nFile size                        : 697 MiB\nOveral bit rate                  : 1715 Kbps\nWriting application              : Nandub v1.0rc2\nWriting library                  : Nandub build 1853/release\n\nVideo\nFormat                           : MPEG-4 Visual\nFormat profile                   : Streaming Video@L1\nFormat settings, BVOP            : Yes\nFormat settings, QPel            : No\nFormat settings, GMC             : No warppoints\nFormat settings, Matrix          : Default\nMuxing mode                      : Packet Bitstream\nCodec ID                         : XVID\nCodec ID/Hint                    : XviD\nDuration                         : 56mn 51s\nBit rate                         : 1595 Kbps\nWidth                            : 560 pixels\nHeight                           : 240 pixels\nDisplay aspect ratio             : 2.35\nFrame rate                       : 23.976 fps\nResolution                       : 8 bits\nColorimetry                      : 4:2:0\nScan type                        : Progressive\nBits/(Pixel*Frame)               : 0.495\nStream size                      : 649 MiB\nWriting library                  : XviD 1.1.2 (UTC 2006-11-01)\n\nAudio\nFormat                           : MPEG Audio\nFormat version                   : Version 1\nFormat profile                   : Layer 3\nCodec ID                         : 55\nCodec ID/Hint                    : MP3\nBit rate mode                    : Variable\nBit rate                         : 109 Kbps\nMinimum bit rate                 : 32.0 Kbps\nChannel(s)                       : 2 channels\nSampling rate                    : 48.0 KHz\nResolution                       : 16 bits\nStream size                      : 43.3 MiB\nWriting library                  : LAME3.97b\nEncoding settings                : VBR (mtrh)\n","torrent":{"xt":"urn:btih:c8b070a5ff9a3ddded2dccdabf0dc7cdd4668e90","amp;dn":"White+Squall+%281996%29+Jeff+Bridges+%2B+Ryan+Phillippe+%28DVDrip%29","amp;tr":["udp%3A%2F%2Ftracker.openbittorrent.com%3A80","udp%3A%2F%2Fopen.demonii.com%3A1337","udp%3A%2F%2Ftracker.coppersurfer.tk%3A6969","udp%3A%2F%2Fexodus.desync.com%3A6969"],"infoHash":"c8b070a5ff9a3ddded2dccdabf0dc7cdd4668e90","infoHashBuffer":{"type":"Buffer","data":[200,176,112,165,255,154,61,221,237,45,204,218,191,13,199,205,212,102,142,144]},"announce":[],"urlList":[]}}